Coordinates
version=1
nRows=25
nColumns=23
inDegrees=yes

Units are S.I. units (second, meters, Newtons, ...)
If the header above contains a line with 'inDegrees', this indicates whether rotational values are in degrees (yes) or radians (no).

endheader
time	pelvis_tilt	pelvis_list	pelvis_rotation	pelvis_tx	pelvis_ty	pelvis_tz	hip_flexion_r	hip_adduction_r	hip_rotation_r	knee_angle_r	knee_angle_r_beta	ankle_angle_r	subtalar_angle_r	mtp_angle_r	hip_flexion_l	hip_adduction_l	hip_rotation_l	knee_angle_l	knee_angle_l_beta	ankle_angle_l	subtalar_angle_l	mtp_angle_l
     22.50000000	      0.26346914	    -10.90686953	    -12.44095044	      2.28116337	      0.90796699	      1.07303041	     17.31152738	     14.31183732	     -0.70367981	     47.51698833	      0.82932790	     24.76645073	      8.84781293	      0.00000000	      3.68350990	    -15.56352095	    -15.45834288	    102.97433923	      1.79724126	     -6.55724789	    -21.94642787	      0.00000000
     22.50666667	      0.19600009	    -10.80973537	    -11.85040582	      2.27995370	      0.90830290	      1.07195079	     16.16494732	     13.81842512	     -1.03093234	     47.15091300	      0.82293868	     25.46114820	      9.48569342	      0.00000000	      5.98670970	    -15.45709722	    -13.79651341	    103.94425308	      1.81416945	     -5.92803567	    -20.81635710	      0.00000000
     22.51333333	      0.16002888	    -10.66656387	    -11.20458233	      2.27897787	      0.90925701	      1.07101373	     14.84919808	     13.37170390	     -1.20905177	     46.51251097	      0.81179646	     26.04263089	      9.75305301	      0.00000000	      8.21330268	    -15.27238812	    -12.16923256	    104.57190065	      1.82512397	     -5.36899797	    -19.69012891	      0.00000000
     22.52000000	      0.06554683	    -10.46194481	    -10.55444767	      2.27822673	      0.91064746	      1.07021925	     13.50116624	     12.92710174	     -1.33333341	     45.68459024	      0.79734652	     26.41388384	      9.93065386	      0.00000000	     10.44404829	    -15.02443276	    -10.63753031	    104.87861085	      1.83047707	     -4.74762987	    -18.43401211	      0.00000000
     22.52666667	     -0.09177912	    -10.18613959	     -9.93731672	      2.27769546	      0.91245430	      1.06958863	     12.13350468	     12.49087324	     -1.34055487	     44.67491569	      0.77972437	     26.58056697	     10.05560383	      0.00000000	     12.63858249	    -14.69545825	     -9.25107522	    104.85223021	      1.83001665	     -4.06687563	    -17.12406685	      0.00000000
     22.53333333	     -0.29390303	     -9.91037278	     -9.42547647	      2.27737723	      0.91471896	      1.06921271	     10.71092315	     12.14326176	     -1.17321806	     43.47819727	      0.75883770	     26.46402087	     10.16391511	      0.00000000	     14.73369916	    -14.42140122	     -8.10240597	    104.51301818	      1.82409628	     -3.20216662	    -15.68673454	      0.00000000
     22.54000000	     -0.52319436	     -9.50210949	     -8.92671640	      2.27727084	      0.91745406	      1.06879637	      9.28207939	     11.69330377	     -0.91646349	     42.16294174	      0.73588216	     26.20202221	     10.05330260	      0.00000000	     16.74063428	    -13.94535258	     -7.10230411	    103.80777758	      1.81178751	     -2.47292822	    -14.59676594	      0.00000000
     22.54666667	     -0.85063459	     -8.96740019	     -8.65479973	      2.27727024	      0.92057911	      1.06859900	      7.93048225	     11.17958793	     -0.39958364	     40.77470776	      0.71165290	     25.75753118	     10.10413354	      0.00000000	     18.66211451	    -13.35767573	     -6.44844771	    102.74939797	      1.79331530	     -1.79400539	    -13.82219263	      0.00000000
     22.55333333	     -1.20180722	     -8.42025894	     -8.33006164	      2.27755486	      0.92398556	      1.06841425	      6.56329898	     10.64562658	      0.04582950	     39.28127515	      0.68558759	     25.01125449	     10.04931522	      0.00000000	     20.48685789	    -12.83697980	     -5.94641274	    101.41970248	      1.77010773	     -1.00304140	    -13.11591119	      0.00000000
     22.56000000	     -0.98829428	     -8.34630799	     -7.91679400	      2.27841665	      0.92887226	      1.06821037	      4.15460249	     10.79455539	      1.25735490	     36.94424648	      0.64479874	     23.36371231	      8.21767261	      0.00000000	     21.44289428	    -12.77315248	     -5.44701652	     99.72325346	      1.74049911	      0.07253385	    -12.03957489	      0.00000000
     22.56666667	     -1.17471722	     -7.85683713	     -7.65181370	      2.27929068	      0.93343718	      1.06792213	      2.38011168	     10.38664118	      2.12737119	     34.91703208	      0.60941717	     21.73632800	      7.37091156	      0.00000000	     22.73683233	    -12.24283303	     -5.20275086	     97.74468217	      1.70596653	      0.87305505	    -11.71608670	      0.00000000
     22.57333333	     -1.62940894	     -7.15994749	     -7.40268341	      2.28030424	      0.93783788	      1.06748950	      1.03093089	      9.61613623	      2.44437315	     33.06161834	      0.57703410	     19.98097897	      7.30724814	      0.00000000	     24.22213334	    -11.45793497	     -5.06558942	     95.52347586	      1.66719917	      1.66857058	    -11.63313857	      0.00000000
     22.58000000	     -1.55285765	     -6.68170629	     -6.97996325	      2.28184562	      0.94327087	      1.06677627	     -1.18744627	      9.14896684	      3.21978704	     30.60623736	      0.53417961	     17.68911315	      6.39962678	      0.00000000	     24.93361046	    -10.76309857	     -4.85381904	     92.96403782	      1.62252855	      2.37736132	    -11.75143263	      0.00000000
     22.58666667	     -1.65103288	     -6.10747870	     -6.82842886	      2.28343237	      0.94865351	      1.06644850	     -3.17802520	      8.61458086	      4.29419701	     28.17602274	      0.49176437	     15.03815246	      5.11568828	      0.00000000	     25.63291695	    -10.17534500	     -5.04124056	     90.17237264	      1.57380480	      3.13089197	    -11.84233517	      0.00000000
     22.59333333	     -1.86244181	     -5.43217408	     -6.50396194	      2.28529583	      0.95385782	      1.06571435	     -4.97954102	      7.87677060	      4.81385385	     25.79400078	      0.45019024	     12.30024760	      4.37425003	      0.00000000	     26.38499018	     -9.31871852	     -5.07678103	     87.17501201	      1.52149099	      3.78703048	    -12.11730688	      0.00000000
     22.60000000	     -2.10670402	     -4.70436693	     -6.12797274	      2.28731716	      0.95896682	      1.06485831	     -6.69791630	      7.05131953	      5.07482261	     23.44505919	      0.40919348	      9.43766705	      3.81592266	      0.00000000	     27.06365974	     -8.35933072	     -5.10601780	     83.97468453	      1.46563473	      4.37979657	    -12.45773844	      0.00000000
     22.60666667	     -2.40869587	     -3.90426848	     -5.65743534	      2.28951682	      0.96381845	      1.06378907	     -8.23883892	      6.08776590	      4.76670622	     21.28335539	      0.37146463	      6.62906784	      3.87463956	      0.00000000	     27.70717597	     -7.23708574	     -5.06731404	     80.58890806	      1.40654179	      4.86323007	    -12.87762910	      0.00000000
     22.61333333	     -2.73487592	     -3.11348231	     -5.20849571	      2.29176468	      0.96852732	      1.06278146	     -9.69666813	      5.18242668	      4.52637402	     19.22169433	      0.33548185	      3.78878734	      3.71426012	      0.00000000	     28.24331726	     -6.16856667	     -5.10284254	     77.02500843	      1.34434000	      5.32192609	    -13.14359528	      0.00000000
     22.62000000	     -3.07230712	     -2.33381453	     -4.76994143	      2.29405526	      0.97303618	      1.06174918	    -11.09614377	      4.33679984	      4.40467390	     17.26580878	      0.30134521	      0.89909661	      3.17648605	      0.00000000	     28.67217996	     -5.08038360	     -5.11333558	     73.28249316	      1.27902079	      5.73892226	    -13.23898387	      0.00000000
     22.62666667	     -3.68703104	     -1.56634024	     -4.27462648	      2.29624343	      0.97684333	      1.06064644	    -11.90825575	      3.46606244	      3.52855323	     15.90732347	      0.27763517	     -1.66260744	      3.43782712	      0.00000000	     29.34309590	     -4.02398702	     -5.09238528	     69.45826587	      1.21227543	      6.16210568	    -13.05236421	      0.00000000
     22.63333333	     -4.41120944	     -0.85137862	     -3.86845952	      2.29830594	      0.98028835	      1.05967468	    -12.44544015	      2.70032558	      2.87542044	     14.92846661	      0.26055089	     -3.86989897	      3.65532450	      0.00000000	     30.02238440	     -3.06796372	     -5.11235150	     65.49977673	      1.14318676	      6.59715830	    -12.62488790	      0.00000000
     22.64000000	     -5.17540001	     -0.24417015	     -3.45700576	      2.30029588	      0.98343260	      1.05854988	    -12.80735791	      2.07835893	      2.31805136	     14.29043630	      0.24941516	     -5.69438791	      3.81993965	      0.00000000	     30.63693270	     -2.15988710	     -5.02248360	     61.40340571	      1.07169160	      7.07920745	    -11.99619373	      0.00000000
     22.64666667	     -5.13015402	      0.35550981	     -2.58588929	      2.30267401	      0.98696813	      1.05686906	    -14.18691076	      1.51410002	      1.07939234	     13.49304104	      0.23549799	     -7.78564235	      3.43036749	      0.00000000	     30.26418531	     -0.93058337	     -4.45833560	     57.10170640	      0.99661279	      7.35338526	    -11.53471952	      0.00000000
     22.65333333	     -5.86863119	      0.82919616	     -2.12955367	      2.30439936	      0.98927311	      1.05570002	    -14.19169619	      1.06528482	      0.28559943	     13.82027492	      0.24120930	     -9.09337108	      3.19314597	      0.00000000	     30.67893988	     -0.13087492	     -4.23522292	     52.82801194	      0.92202275	      7.83842938	    -10.43484070	      0.00000000
     22.66000000	     -6.43512540	      1.24861990	     -1.61436120	      2.30604942	      0.99130807	      1.05438788	    -14.23009283	      0.67637160	     -0.63405973	     14.56965523	      0.25428845	    -10.05687671	      2.94955117	      0.00000000	     30.81414787	      0.71918759	     -3.80280892	     48.46964083	      0.84595482	      8.35142286	     -9.17457304	      0.00000000
